<svg width="60" height="19" viewBox="0 0 60 19" fill="none" xmlns="http://www.w3.org/2000/svg">
<path d="M0.528409 0.545454H4.09943L8.36932 8.26705H8.53977L12.8097 0.545454H16.3807L10.0312 11.4886V18H6.87784V11.4886L0.528409 0.545454ZM20.0007 18.2642C19.1712 18.2642 18.424 18.1165 17.7592 17.821C17.1001 17.5199 16.5774 17.0767 16.1911 16.4915C15.8104 15.9062 15.62 15.1847 15.62 14.3267C15.62 13.5881 15.7564 12.9773 16.0291 12.4943C16.3018 12.0114 16.674 11.625 17.1456 11.3352C17.6172 11.0455 18.1484 10.8267 18.7393 10.679C19.3359 10.5256 19.9524 10.4148 20.5888 10.3466C21.3558 10.267 21.978 10.196 22.4553 10.1335C22.9325 10.0653 23.2791 9.96307 23.495 9.8267C23.7166 9.68466 23.8274 9.46591 23.8274 9.17045V9.11932C23.8274 8.47727 23.6371 7.98011 23.2564 7.62784C22.8757 7.27557 22.3274 7.09943 21.6115 7.09943C20.8558 7.09943 20.2564 7.2642 19.8132 7.59375C19.3757 7.9233 19.0803 8.3125 18.9268 8.76136L16.0462 8.35227C16.2734 7.55682 16.6484 6.89205 17.1712 6.35795C17.6939 5.81818 18.3331 5.41477 19.0888 5.14773C19.8445 4.875 20.6797 4.73864 21.5945 4.73864C22.2251 4.73864 22.853 4.8125 23.478 4.96023C24.103 5.10795 24.674 5.35227 25.1911 5.69318C25.7081 6.02841 26.1229 6.4858 26.4354 7.06534C26.7536 7.64489 26.9126 8.36932 26.9126 9.23864V18H23.9467V16.2017H23.8445C23.657 16.5653 23.3928 16.9062 23.0518 17.2244C22.7166 17.5369 22.2933 17.7898 21.782 17.983C21.2763 18.1705 20.6825 18.2642 20.0007 18.2642ZM20.8018 15.9972C21.4212 15.9972 21.9581 15.875 22.4126 15.6307C22.8672 15.3807 23.2166 15.0511 23.4609 14.642C23.7109 14.233 23.8359 13.7869 23.8359 13.304V11.7614C23.7393 11.8409 23.5746 11.9148 23.3416 11.983C23.1143 12.0511 22.8587 12.1108 22.5746 12.1619C22.2905 12.2131 22.0092 12.2585 21.7308 12.2983C21.4524 12.3381 21.2109 12.3722 21.0064 12.4006C20.5462 12.4631 20.1342 12.5653 19.7706 12.7074C19.407 12.8494 19.12 13.0483 18.9098 13.304C18.6996 13.554 18.5945 13.8778 18.5945 14.2756C18.5945 14.8438 18.8018 15.2727 19.2166 15.5625C19.6314 15.8523 20.1598 15.9972 20.8018 15.9972ZM30.1513 18V0.545454H36.6967C38.0376 0.545454 39.1626 0.795454 40.0717 1.29545C40.9865 1.79545 41.6768 2.48295 42.1428 3.35795C42.6143 4.22727 42.8501 5.21591 42.8501 6.32386C42.8501 7.44318 42.6143 8.4375 42.1428 9.30682C41.6712 10.1761 40.9751 10.8608 40.0547 11.3608C39.1342 11.8551 38.0007 12.1023 36.6541 12.1023H32.3161V9.50284H36.228C37.0121 9.50284 37.6541 9.36648 38.1541 9.09375C38.6541 8.82102 39.0234 8.44602 39.2621 7.96875C39.5064 7.49148 39.6286 6.94318 39.6286 6.32386C39.6286 5.70455 39.5064 5.15909 39.2621 4.6875C39.0234 4.21591 38.6513 3.84943 38.1456 3.58807C37.6456 3.32102 37.0007 3.1875 36.2109 3.1875H33.3132V18H30.1513ZM48.2386 0.545454L52.0824 6.9375H52.2188L56.0795 0.545454H59.6847L54.3068 9.27273L59.7699 18H56.1051L52.2188 11.6506H52.0824L48.196 18H44.5483L50.0625 9.27273L44.6165 0.545454H48.2386Z" fill="black"/>
</svg>
